<?xml version="1.0" encoding="UTF-8"?>
<svg xmlns="http://www.w3.org/2000/svg" width="1024" height="1024" viewBox="0 0 1024 1024">
  <defs>
    <linearGradient id="bgGrad" x1="0" y1="0" x2="1" y2="1">
      <stop offset="0%" stop-color="#a855f7"/>
      <stop offset="100%" stop-color="#7c3aed"/>
    </linearGradient>
    <filter id="shadow" x="-20%" y="-20%" width="140%" height="140%">
      <feOffset dx="0" dy="16" in="SourceAlpha" result="off"/>
      <feGaussianBlur stdDeviation="24" in="off" result="blur"/>
      <feColorMatrix type="matrix" values="0 0 0 0 0  0 0 0 0 0  0 0 0 0 0  0 0 0 0.25 0" in="blur" result="shadow"/>
      <feBlend in="SourceGraphic" in2="shadow" mode="normal"/>
    </filter>
    <clipPath id="rounded">
      <rect x="64" y="64" width="896" height="896" rx="192" ry="192"/>
    </clipPath>
  </defs>

  <!-- Rounded square background with gradient -->
  <g filter="url(#shadow)">
    <rect x="64" y="64" width="896" height="896" rx="192" ry="192" fill="url(#bgGrad)"/>
  </g>

  <!-- Subtle inner glow -->
  <rect x="64" y="64" width="896" height="896" rx="192" ry="192" fill="none" stroke="#ffffff" opacity="0.12" stroke-width="6"/>

  <!-- Confetti and sparkles (party vibe) -->
  <g clip-path="url(#rounded)" opacity="0.95">
    <!-- Stars -->
    <path d="M256 236l18 36 40 6-29 29 7 41-36-19-36 19 7-41-29-29 40-6z"
          fill="#f59e0b" opacity="0.95"/>
    <path d="M782 280l12 24 27 4-20 20 5 27-24-13-24 13 5-27-20-20 27-4z"
          fill="#fde68a" opacity="0.9"/>
    <!-- Diamonds -->
    <rect x="220" y="380" width="36" height="36" transform="rotate(45 238 398)" fill="#f472b6"/>
    <rect x="800" y="396" width="32" height="32" transform="rotate(45 816 412)" fill="#fbcfe8"/>
    <!-- Streamers -->
    <path d="M180 640c40-60 90 20 130-40s90 20 130-40" fill="none" stroke="#fda4af" stroke-width="18" stroke-linecap="round"/>
    <path d="M820 600c-35 52-84-18-120 34s-78-18-114 34" fill="none" stroke="#f9a8d4" stroke-width="18" stroke-linecap="round"/>
  </g>

  <!-- Calendar base -->
  <g transform="translate(208,240)">
    <!-- Body -->
    <rect x="0" y="120" width="608" height="432" rx="36" fill="#fff7ed"/>
    <!-- Top bar -->
    <rect x="0" y="72" width="608" height="72" rx="24" fill="#fde68a"/>
    <!-- Rings -->
    <rect x="84" y="24" width="44" height="96" rx="22" fill="#fff1f2"/>
    <rect x="480" y="24" width="44" height="96" rx="22" fill="#fff1f2"/>
    <!-- Grid of days -->
    <g fill="#e9d5ff">
      <!-- 3x4 rounded squares -->
      <rect x="56" y="176" width="96" height="88" rx="16"/>
      <rect x="184" y="176" width="96" height="88" rx="16"/>
      <rect x="312" y="176" width="96" height="88" rx="16"/>
      <rect x="440" y="176" width="96" height="88" rx="16"/>

      <rect x="56" y="284" width="96" height="88" rx="16"/>
      <rect x="184" y="284" width="96" height="88" rx="16"/>
      <rect x="312" y="284" width="96" height="88" rx="16"/>
      <rect x="440" y="284" width="96" height="88" rx="16"/>

      <rect x="56" y="392" width="96" height="88" rx="16"/>
      <rect x="184" y="392" width="96" height="88" rx="16"/>
      <rect x="312" y="392" width="96" height="88" rx="16"/>
      <rect x="440" y="392" width="96" height="88" rx="16"/>
    </g>
  </g>

  <!-- Check badge overlapping bottom-right of calendar -->
  <g transform="translate(640,600)">
    <circle cx="0" cy="0" r="140" fill="#f472b6"/>
    <circle cx="0" cy="0" r="140" fill="#000" opacity="0.08"/>
    <circle cx="-6" cy="-6" r="130" fill="#ec4899"/>
    <path d="M-60 14l44 44 86-86" fill="none" stroke="#fff7ed" stroke-width="28" stroke-linecap="round" stroke-linejoin="round"/>
  </g>
</svg>
